<svg xmlns="http://www.w3.org/2000/svg" viewBox="0 0 64 64" role="img" aria-label="Curious Chappal">
  <defs>
    <linearGradient id="chrome" x1="10" y1="5" x2="54" y2="60" gradientUnits="userSpaceOnUse">
      <stop offset="0" stop-color="#18181b"/>
      <stop offset="1" stop-color="#050505"/>
    </linearGradient>
    <linearGradient id="accent" x1="18" y1="14" x2="48" y2="52" gradientUnits="userSpaceOnUse">
      <stop offset="0" stop-color="#f47a3b"/>
      <stop offset="0.52" stop-color="#d3501c"/>
      <stop offset="1" stop-color="#9a3a14"/>
    </linearGradient>
  </defs>

  <rect width="64" height="64" rx="15" fill="url(#chrome)"/>
  <rect x="2.5" y="2.5" width="59" height="59" rx="13" fill="none" stroke="#ffffff" stroke-opacity="0.08"/>

  <path d="M17 15.5C21.6 11.7 28.2 9.8 35.1 10.7C44.7 11.9 51.7 18 53.4 26.2C54.9 33.7 51.7 41.4 44.7 47.2C38.4 52.4 29.3 54.5 20.6 52.7C14.1 51.4 9 48.2 6.8 43.9C12.6 46.1 18.9 45.7 24 42.8C30.8 38.9 33.4 31.3 30.1 24.8C27.9 20.3 23.1 16.9 17 15.5Z" fill="url(#accent)"/>
  <path d="M18.3 18.9C22.2 15.9 27.7 14.5 33.4 15.2C41.3 16.2 47 21 48.5 27.1C49.7 32.4 47.4 37.9 42.2 42.2C37 46.5 29.5 48.2 22.2 46.8C17.7 45.9 14.2 44.1 12.1 41.8C17.2 42.8 22.4 41.9 26.5 39.5C35.6 34.1 34.7 21.9 18.3 18.9Z" fill="#ffefe6" fill-opacity="0.18"/>

  <text x="32" y="39.5"
        text-anchor="middle"
        font-family="Geist Mono, SFMono-Regular, ui-monospace, Menlo, monospace"
        font-size="20"
        font-weight="800"
        letter-spacing="-2.5"
        fill="#ffffff">cc</text>
</svg>
